
<svg width="81" height="81" viewBox="0 0 81 81" fill="none" xmlns="http://www.w3.org/2000/svg">
<rect width="81" height="81" rx="18.1343" fill="#CFFCF1"/>
<path d="M33.4025 30.6977C33.4979 30.7072 33.5932 30.7168 33.6886 30.7358C33.7267 30.7454 33.7648 30.7644 33.7839 30.793C33.8411 30.8598 33.822 30.9551 33.7553 31.0123C32.7447 31.7845 31.7818 32.4901 30.8475 33.2337C30.0943 33.8248 30.0943 35.2835 30.8189 36.1416C31.4862 36.9424 32.411 37.2475 33.4121 37.3809C35.1568 37.6193 36.6536 37.0663 38.0265 36.0367C38.4841 35.6839 38.9418 35.3407 39.4184 35.007C40.3909 34.3206 40.5148 34.2252 41.1345 34.9307C42.6695 36.685 44.1949 38.4488 45.7204 40.2221C47.2744 42.024 48.7903 43.8545 50.3634 45.6564C50.7829 46.1331 50.8305 46.6098 50.6303 47.1437C50.4492 47.6585 49.9439 48.0017 49.4004 47.9636C48.8379 47.9445 48.2754 47.792 47.6557 47.6966C47.446 48.3163 47.1981 49.0695 46.3496 49.2888C45.5583 49.4985 44.9195 49.0505 44.2235 48.6405C44.1759 48.7644 44.1377 48.8884 44.1091 49.0219C43.9375 49.9657 43.3655 50.3566 42.4312 50.1278C42.1547 50.0611 41.8877 49.9657 41.6208 49.8609C41.3729 49.7655 41.1346 49.6416 40.8676 49.5176C40.8199 49.632 40.7723 49.7083 40.7437 49.7941C40.3432 50.8428 39.6568 51.2719 38.6176 50.8238C37.607 50.3852 36.6441 49.8227 35.7765 49.1363C33.9174 47.668 32.1345 46.1045 30.3422 44.5695C30.0085 44.2835 29.6748 44.1024 29.2267 44.1596C28.893 44.1977 28.7023 44.1024 28.7023 43.721V33.4244C28.7023 33.2718 28.9121 33.0526 29.036 33.024C29.6748 32.8905 30.1134 32.471 30.5138 32.0324C31.3051 31.1935 32.2299 30.6977 33.4025 30.6977ZM58.1621 31.1458C58.9534 31.1458 59.5922 31.7846 59.5922 32.5759V44.9699L59.5826 45.137C59.5002 45.8493 58.8969 46.4 58.1621 46.4H55.0159C54.7013 46.4 54.4439 46.1426 54.4439 45.828V31.7178C54.4439 31.4032 54.7013 31.1458 55.0159 31.1458H58.1621ZM26.5763 31.1458C26.8909 31.1458 27.1483 31.4032 27.1483 31.7178V45.828C27.1483 46.1426 26.8909 46.4 26.5763 46.4H23.4301L23.263 46.3904C22.5508 46.308 22 45.7047 22 44.9699V32.5759L22.0096 32.4088C22.092 31.6966 22.6953 31.1458 23.4301 31.1458H26.5763ZM41.2966 29.0006C41.9545 28.9911 42.6028 29.0865 43.232 29.2962C43.8612 29.5155 44.4619 29.8682 45.053 30.2019L45.4439 30.4212C47.6367 31.6702 50.0487 32.471 52.5466 32.7856C52.8422 32.8237 52.8613 32.881 52.8613 33.167V40.2983C52.8613 41.6617 52.8613 43.0727 52.8803 44.4647C52.8899 44.8174 52.804 44.9604 52.5371 45.0367C52.4036 45.0844 52.2702 45.113 52.1271 45.1225C51.9651 45.1225 51.803 45.0462 51.7077 44.9127C49.267 42.0812 46.7691 39.2115 44.357 36.4371L42.5265 34.3301C42.4407 34.2252 42.3454 34.1204 42.2596 34.025C42.1356 33.8916 42.0117 33.7581 41.8973 33.6151C41.4968 33.1384 40.9915 32.8809 40.4576 32.8809C40.0191 32.8809 39.571 33.0526 39.161 33.3767L38.8559 33.6246C38.16 34.1776 37.4449 34.7496 36.6822 35.1786C35.8814 35.6267 34.375 36.132 33.8983 36.1701C32.9926 36.2464 32.1059 35.5981 31.7723 35.0452C31.5434 34.6733 31.5816 34.4731 31.9057 34.2157C32.4968 33.7485 33.0975 33.2718 33.6981 32.8047C34.8422 31.9085 36.0244 30.9837 37.1684 30.0494C37.7691 29.5536 38.4937 29.2771 39.5138 29.1437C40.1049 29.0579 40.696 29.0102 41.2966 29.0006Z" fill="url(#paint0_linear_642_6881)"/>
<path d="M33.4025 30.6977C33.4979 30.7072 33.5932 30.7168 33.6886 30.7358C33.7267 30.7454 33.7648 30.7644 33.7839 30.793C33.8411 30.8598 33.822 30.9551 33.7553 31.0123C32.7447 31.7845 31.7818 32.4901 30.8475 33.2337C30.0943 33.8248 30.0943 35.2835 30.8189 36.1416C31.4862 36.9424 32.411 37.2475 33.4121 37.3809C35.1568 37.6193 36.6536 37.0663 38.0265 36.0367C38.4841 35.6839 38.9418 35.3407 39.4184 35.007C40.3909 34.3206 40.5148 34.2252 41.1345 34.9307C42.6695 36.685 44.1949 38.4488 45.7204 40.2221C47.2744 42.024 48.7903 43.8545 50.3634 45.6564C50.7829 46.1331 50.8305 46.6098 50.6303 47.1437C50.4492 47.6585 49.9439 48.0017 49.4004 47.9636C48.8379 47.9445 48.2754 47.792 47.6557 47.6966C47.446 48.3163 47.1981 49.0695 46.3496 49.2888C45.5583 49.4985 44.9195 49.0505 44.2235 48.6405C44.1759 48.7644 44.1377 48.8884 44.1091 49.0219C43.9375 49.9657 43.3655 50.3566 42.4312 50.1278C42.1547 50.0611 41.8877 49.9657 41.6208 49.8609C41.3729 49.7655 41.1346 49.6416 40.8676 49.5176C40.8199 49.632 40.7723 49.7083 40.7437 49.7941C40.3432 50.8428 39.6568 51.2719 38.6176 50.8238C37.607 50.3852 36.6441 49.8227 35.7765 49.1363C33.9174 47.668 32.1345 46.1045 30.3422 44.5695C30.0085 44.2835 29.6748 44.1024 29.2267 44.1596C28.893 44.1977 28.7023 44.1024 28.7023 43.721V33.4244C28.7023 33.2718 28.9121 33.0526 29.036 33.024C29.6748 32.8905 30.1134 32.471 30.5138 32.0324C31.3051 31.1935 32.2299 30.6977 33.4025 30.6977ZM58.1621 31.1458C58.9534 31.1458 59.5922 31.7846 59.5922 32.5759V44.9699L59.5826 45.137C59.5002 45.8493 58.8969 46.4 58.1621 46.4H55.0159C54.7013 46.4 54.4439 46.1426 54.4439 45.828V31.7178C54.4439 31.4032 54.7013 31.1458 55.0159 31.1458H58.1621ZM26.5763 31.1458C26.8909 31.1458 27.1483 31.4032 27.1483 31.7178V45.828C27.1483 46.1426 26.8909 46.4 26.5763 46.4H23.4301L23.263 46.3904C22.5508 46.308 22 45.7047 22 44.9699V32.5759L22.0096 32.4088C22.092 31.6966 22.6953 31.1458 23.4301 31.1458H26.5763ZM41.2966 29.0006C41.9545 28.9911 42.6028 29.0865 43.232 29.2962C43.8612 29.5155 44.4619 29.8682 45.053 30.2019L45.4439 30.4212C47.6367 31.6702 50.0487 32.471 52.5466 32.7856C52.8422 32.8237 52.8613 32.881 52.8613 33.167V40.2983C52.8613 41.6617 52.8613 43.0727 52.8803 44.4647C52.8899 44.8174 52.804 44.9604 52.5371 45.0367C52.4036 45.0844 52.2702 45.113 52.1271 45.1225C51.9651 45.1225 51.803 45.0462 51.7077 44.9127C49.267 42.0812 46.7691 39.2115 44.357 36.4371L42.5265 34.3301C42.4407 34.2252 42.3454 34.1204 42.2596 34.025C42.1356 33.8916 42.0117 33.7581 41.8973 33.6151C41.4968 33.1384 40.9915 32.8809 40.4576 32.8809C40.0191 32.8809 39.571 33.0526 39.161 33.3767L38.8559 33.6246C38.16 34.1776 37.4449 34.7496 36.6822 35.1786C35.8814 35.6267 34.375 36.132 33.8983 36.1701C32.9926 36.2464 32.1059 35.5981 31.7723 35.0452C31.5434 34.6733 31.5816 34.4731 31.9057 34.2157C32.4968 33.7485 33.0975 33.2718 33.6981 32.8047C34.8422 31.9085 36.0244 30.9837 37.1684 30.0494C37.7691 29.5536 38.4937 29.2771 39.5138 29.1437C40.1049 29.0579 40.696 29.0102 41.2966 29.0006Z" fill="#2CCA7E"/>
<defs>
<linearGradient id="paint0_linear_642_6881" x1="22" y1="36.2326" x2="53.2864" y2="54.5423" gradientUnits="userSpaceOnUse">
<stop stop-color="#81FBB8"/>
<stop offset="1" stop-color="#28C76F"/>
</linearGradient>
</defs>
</svg>