<svg width="81" height="81" viewBox="0 0 81 81" fill="none" xmlns="http://www.w3.org/2000/svg">
<rect width="81" height="81" rx="18.1343" fill="#EAE8FF"/>
<path fill-rule="evenodd" clip-rule="evenodd" d="M36.7575 42.3379C37.8121 43.8061 38.8589 45.2508 39.9838 46.7893C40.101 46.1021 40.2103 45.4929 40.3119 44.876C40.4369 44.1341 40.1322 43.525 39.726 42.9471C39.6401 42.8534 39.5619 42.7596 39.4994 42.6503C39.4213 42.4629 39.351 42.2755 39.2963 42.0802C39.4838 41.9943 39.6791 41.9397 39.8822 41.9084C40.5072 41.885 41.1321 41.885 41.7571 41.9084C42.2649 41.924 42.4602 42.213 42.0774 42.5644C40.7962 43.8217 41.1712 45.2352 41.593 46.7424L43.7257 43.728C44.085 43.2204 44.4131 42.6894 44.8115 42.213C44.9678 42.0256 45.3037 41.8303 45.5146 41.8772C46.6552 42.088 47.7098 42.4785 48.4753 43.4156C48.9597 43.9701 49.2253 44.6886 49.2253 45.4226C49.1628 47.2657 49.0925 49.1165 48.8581 50.9361C48.7253 51.9903 48.0457 52.4199 46.9598 52.4511C43.8976 52.5682 40.8353 52.701 37.773 52.74C36.609 52.7557 35.4294 52.5526 34.2654 52.4199C33.453 52.3339 32.9609 51.8654 32.7031 51.0923C32.1328 49.3664 32.2187 47.5858 32.25 45.8053C32.2734 44.7042 32.5781 43.7436 33.4139 42.9939C34.1326 42.3536 35.0076 42.0802 35.906 41.8459C36.3434 41.7288 36.5465 42.0334 36.7575 42.3379ZM51.0767 41.3618C52.6469 42.2911 54.1937 42.2364 55.7951 41.432C56.2169 41.2602 56.6857 41.229 57.1231 41.3383C58.873 41.721 59.498 42.4395 59.662 44.2044C59.7948 45.4148 59.6933 46.6331 59.3808 47.8123C59.1933 48.4527 58.8105 48.8588 58.1309 48.9603C55.842 49.3195 53.5375 49.3039 51.1392 49.2102C51.1392 47.9763 51.1314 46.8205 51.1392 45.6569C51.1548 44.095 50.7564 42.705 49.5534 41.6273C49.5221 41.5804 49.4909 41.5336 49.4753 41.4789C49.9909 41.0963 50.5377 41.0416 51.0767 41.3618ZM32.1172 41.4633C31.1641 42.2755 30.5548 43.4234 30.422 44.6729C30.3829 45.0087 30.3595 45.3446 30.3517 45.6804C30.3517 46.6956 30.336 47.7108 30.3517 48.7182C30.3517 49.0462 30.2814 49.2102 29.922 49.2258C27.6956 49.2883 25.4692 49.2961 23.2662 48.9369C22.7741 48.8822 22.3601 48.5386 22.2195 48.0622C21.6726 46.4691 21.6101 44.751 22.0398 43.1267C22.4226 41.6898 24.5708 40.7292 25.8754 41.4477C27.3909 42.2911 28.8518 42.2598 30.3204 41.4086C30.8985 41.0806 31.461 41.1041 32.1172 41.4633ZM53.3969 32.42C55.7248 32.3888 57.6465 34.2474 57.6778 36.5824V36.7542C57.6934 39.058 55.842 40.9401 53.5375 40.9635C53.4984 40.9557 53.4594 40.9557 53.4281 40.9557C51.0533 40.9557 49.2487 39.1127 49.2331 36.6996C49.2019 34.3724 51.0611 32.4513 53.3969 32.42ZM28.1565 32.4669C30.4611 32.4981 32.3125 34.388 32.2812 36.6918V36.7464C32.25 39.1439 30.4064 40.9713 28.0393 40.9557C25.602 40.9323 23.8131 39.0736 23.8365 36.5902C23.86 34.2552 25.7426 32.4356 28.1565 32.4669ZM40.7806 29.0151C44.0226 29.0151 46.5224 31.5454 46.5224 34.8253C46.5224 38.1053 44.0304 40.6355 40.7806 40.6589C37.5308 40.6902 34.9763 38.1287 34.9763 34.8331C34.9295 31.6625 37.4605 29.062 40.6322 29.0151H40.7806Z" fill="url(#paint0_linear_642_6876)"/>
<path fill-rule="evenodd" clip-rule="evenodd" d="M36.7575 42.3379C37.8121 43.8061 38.8589 45.2508 39.9838 46.7893C40.101 46.1021 40.2103 45.4929 40.3119 44.876C40.4369 44.1341 40.1322 43.525 39.726 42.9471C39.6401 42.8534 39.5619 42.7596 39.4994 42.6503C39.4213 42.4629 39.351 42.2755 39.2963 42.0802C39.4838 41.9943 39.6791 41.9397 39.8822 41.9084C40.5072 41.885 41.1321 41.885 41.7571 41.9084C42.2649 41.924 42.4602 42.213 42.0774 42.5644C40.7962 43.8217 41.1712 45.2352 41.593 46.7424L43.7257 43.728C44.085 43.2204 44.4131 42.6894 44.8115 42.213C44.9678 42.0256 45.3037 41.8303 45.5146 41.8772C46.6552 42.088 47.7098 42.4785 48.4753 43.4156C48.9597 43.9701 49.2253 44.6886 49.2253 45.4226C49.1628 47.2657 49.0925 49.1165 48.8581 50.9361C48.7253 51.9903 48.0457 52.4199 46.9598 52.4511C43.8976 52.5682 40.8353 52.701 37.773 52.74C36.609 52.7557 35.4294 52.5526 34.2654 52.4199C33.453 52.3339 32.9609 51.8654 32.7031 51.0923C32.1328 49.3664 32.2187 47.5858 32.25 45.8053C32.2734 44.7042 32.5781 43.7436 33.4139 42.9939C34.1326 42.3536 35.0076 42.0802 35.906 41.8459C36.3434 41.7288 36.5465 42.0334 36.7575 42.3379ZM51.0767 41.3618C52.6469 42.2911 54.1937 42.2364 55.7951 41.432C56.2169 41.2602 56.6857 41.229 57.1231 41.3383C58.873 41.721 59.498 42.4395 59.662 44.2044C59.7948 45.4148 59.6933 46.6331 59.3808 47.8123C59.1933 48.4527 58.8105 48.8588 58.1309 48.9603C55.842 49.3195 53.5375 49.3039 51.1392 49.2102C51.1392 47.9763 51.1314 46.8205 51.1392 45.6569C51.1548 44.095 50.7564 42.705 49.5534 41.6273C49.5221 41.5804 49.4909 41.5336 49.4753 41.4789C49.9909 41.0963 50.5377 41.0416 51.0767 41.3618ZM32.1172 41.4633C31.1641 42.2755 30.5548 43.4234 30.422 44.6729C30.3829 45.0087 30.3595 45.3446 30.3517 45.6804C30.3517 46.6956 30.336 47.7108 30.3517 48.7182C30.3517 49.0462 30.2814 49.2102 29.922 49.2258C27.6956 49.2883 25.4692 49.2961 23.2662 48.9369C22.7741 48.8822 22.3601 48.5386 22.2195 48.0622C21.6726 46.4691 21.6101 44.751 22.0398 43.1267C22.4226 41.6898 24.5708 40.7292 25.8754 41.4477C27.3909 42.2911 28.8518 42.2598 30.3204 41.4086C30.8985 41.0806 31.461 41.1041 32.1172 41.4633ZM53.3969 32.42C55.7248 32.3888 57.6465 34.2474 57.6778 36.5824V36.7542C57.6934 39.058 55.842 40.9401 53.5375 40.9635C53.4984 40.9557 53.4594 40.9557 53.4281 40.9557C51.0533 40.9557 49.2487 39.1127 49.2331 36.6996C49.2019 34.3724 51.0611 32.4513 53.3969 32.42ZM28.1565 32.4669C30.4611 32.4981 32.3125 34.388 32.2812 36.6918V36.7464C32.25 39.1439 30.4064 40.9713 28.0393 40.9557C25.602 40.9323 23.8131 39.0736 23.8365 36.5902C23.86 34.2552 25.7426 32.4356 28.1565 32.4669ZM40.7806 29.0151C44.0226 29.0151 46.5224 31.5454 46.5224 34.8253C46.5224 38.1053 44.0304 40.6355 40.7806 40.6589C37.5308 40.6902 34.9763 38.1287 34.9763 34.8331C34.9295 31.6625 37.4605 29.062 40.6322 29.0151H40.7806Z" fill="#844AFF"/>
<defs>
<linearGradient id="paint0_linear_642_6876" x1="21.7578" y1="36.2441" x2="53.2211" y2="55.9086" gradientUnits="userSpaceOnUse">
<stop stop-color="#EE9AE5"/>
<stop offset="1" stop-color="#5961F9"/>
</linearGradient>
</defs>
</svg>
