<svg width="81" height="81" viewBox="0 0 81 81" fill="none" xmlns="http://www.w3.org/2000/svg">
<rect width="81" height="81" rx="18.1343" fill="#FFF1DB"/>
<path fill-rule="evenodd" clip-rule="evenodd" d="M48.2629 25.032C49.8402 25.0703 51.0837 25.7227 51.6858 27.2319C51.8495 27.6412 51.9018 28.0888 52 28.5237V52.9849C51.9804 53.1 51.9477 53.2087 51.9346 53.3238C51.7251 54.929 50.6779 56.0865 49.1006 56.3807C48.6098 56.4638 48.1124 56.4958 47.6215 56.4894C44.6828 56.5022 41.7442 56.5022 38.8056 56.4958C36.4494 56.4958 34.0933 56.5022 31.7371 56.4766C30.0616 56.4574 28.8377 55.6389 28.2945 54.2128C28.144 53.8482 28.0916 53.4453 28 53.0552V28.5301C28.0196 28.4278 28.0458 28.3254 28.0589 28.2231C28.2487 26.6883 29.1781 25.582 30.6572 25.2046C31.1481 25.0831 31.652 25.0256 32.1625 25.0256C35.5397 25.0064 38.9234 25.0064 42.3005 25.0064C44.2902 25.0064 46.2732 24.9808 48.2629 25.032ZM47.8506 26.618H32.1298C30.4216 26.618 29.682 27.3214 29.6689 28.9777C29.6493 31.3247 29.6624 33.6653 29.6624 36.0123V46.4619C29.6624 48.5915 29.6559 50.7274 29.682 52.857C29.7017 54.0529 30.33 54.7052 31.5408 54.8651C31.7371 54.8842 31.9269 54.897 32.1233 54.8906H47.8178C48.0142 54.8906 48.2105 54.8906 48.4003 54.8714C49.6111 54.7627 50.2787 54.0785 50.3311 52.8954C50.3442 52.6587 50.3442 52.4285 50.3442 52.1983C50.3376 48.3932 50.3376 44.5818 50.3376 40.7703V29.0481C50.3376 27.3278 49.6046 26.618 47.8506 26.618ZM40.7297 48.7002C41.2991 48.7258 41.6526 49.0327 41.6918 49.5827C41.7246 50.203 41.718 50.8234 41.6722 51.4437C41.646 51.8913 41.3973 52.128 40.9326 52.1919C40.5923 52.2431 40.2454 52.2303 39.9051 52.2495V52.2303C39.6433 52.2303 39.3881 52.2367 39.1263 52.2303C38.5111 52.2047 38.1445 51.8977 38.1053 51.3094C38.066 50.7402 38.066 50.1711 38.1053 49.6083C38.1445 49.0583 38.5176 48.7258 39.0804 48.7002C39.6433 48.6746 40.18 48.681 40.7297 48.7002ZM34.2045 48.681C34.8459 48.7066 35.1732 49.0583 35.2059 49.6914C35.219 49.9536 35.2059 50.2158 35.2059 50.478L35.1993 50.4972C35.1993 50.7594 35.2124 51.0216 35.1993 51.2838C35.1666 51.8786 34.8852 52.1791 34.2765 52.2111C33.694 52.2431 33.1115 52.2431 32.529 52.2111C31.9793 52.1855 31.6324 51.8466 31.5931 51.2966C31.5604 50.7402 31.5604 50.1838 31.5931 49.6211C31.6258 49.0711 32.0185 48.713 32.5879 48.681C33.1246 48.6554 33.6679 48.6554 34.2045 48.681ZM47.2288 43.0342C47.8178 43.0597 48.1582 43.3667 48.1974 43.9422C48.2367 44.5306 48.2302 50.785 48.1778 51.3669C48.1255 51.9425 47.8375 52.1727 47.2419 52.2111C46.967 52.2431 46.6856 52.2239 46.4107 52.2239C46.1423 52.2239 45.8675 52.2367 45.5991 52.2239C45.0036 52.1855 44.6305 51.8402 44.6043 51.2582C44.5781 50.721 44.5781 44.5242 44.6043 43.987C44.5978 43.4626 45.0297 43.0405 45.5664 43.0342H45.5795C46.1293 43.0086 46.679 43.0086 47.2288 43.0342ZM34.2176 43.0981C34.8459 43.1365 35.1535 43.4498 35.1928 44.0701C35.219 44.6457 35.219 45.2277 35.1862 45.8032C35.1601 46.2828 34.8852 46.5451 34.3943 46.6154C34.2242 46.6346 34.054 46.6474 33.8773 46.6474H33.3995L33.3864 46.6602C33.0657 46.6602 32.7385 46.641 32.4178 46.609C31.9007 46.5322 31.5997 46.2189 31.58 45.7137C31.5539 45.1573 31.5539 44.6009 31.5866 44.0446C31.6193 43.4882 31.9662 43.1429 32.5356 43.1045C33.0919 43.0661 33.6548 43.0661 34.2176 43.0981ZM40.8148 43.1301C41.3581 43.1684 41.646 43.4626 41.6788 43.987C41.718 44.5945 41.718 45.2085 41.6853 45.816C41.6657 46.2892 41.3123 46.5962 40.8148 46.6346C40.5269 46.6538 40.2323 46.6346 39.9444 46.6346L39.9575 46.6282C39.6433 46.6282 39.3292 46.6538 39.0216 46.6282C38.4718 46.577 38.1511 46.302 38.1053 45.7712C38.0595 45.1637 38.0595 44.5498 38.1053 43.9422C38.138 43.4754 38.4587 43.1621 38.943 43.1301C39.5648 43.0853 40.1931 43.0853 40.8148 43.1301ZM47.2942 37.5152C47.8571 37.5536 48.1712 37.8669 48.204 38.4105C48.2367 38.9988 48.2367 39.5936 48.1974 40.1819C48.1582 40.7447 47.8767 40.9877 47.3008 41.0325C46.9997 41.0581 46.6987 41.0325 46.391 41.0325C46.1227 41.0325 45.8478 41.0453 45.5795 41.0325C44.997 40.9941 44.6436 40.6871 44.6108 40.1244C44.5781 39.5552 44.5781 38.9861 44.6108 38.4169C44.6436 37.8669 44.9512 37.5536 45.514 37.5152C46.1031 37.4768 46.6987 37.4768 47.2942 37.5152ZM34.2634 37.5216C34.8459 37.56 35.147 37.8733 35.1797 38.4361C35.2124 39.0244 35.2059 39.6128 35.1797 40.2011C35.1535 40.6808 34.8197 40.9877 34.3223 41.0261C34.0147 41.0517 33.694 41.0261 33.3864 41.0261V41.0389C33.1181 41.0389 32.8432 41.0517 32.5749 41.0389C31.9727 41.0133 31.6193 40.6999 31.5866 40.118C31.5539 39.5488 31.5539 38.9797 31.5866 38.4169C31.6193 37.8669 31.9269 37.56 32.4898 37.5216C33.0788 37.4832 33.6744 37.4832 34.2634 37.5216ZM40.8345 37.5216C41.3581 37.5536 41.6722 37.8733 41.6984 38.3849C41.7311 38.9925 41.7246 39.6064 41.6853 40.2139C41.6526 40.7127 41.345 40.9813 40.8148 41.0261C40.5203 41.0517 40.2193 41.0261 39.9117 41.0325C39.6302 41.0325 39.3488 41.0453 39.0739 41.0325C38.4914 40.9941 38.1445 40.6935 38.1053 40.1244C38.066 39.536 38.0725 38.9477 38.1118 38.3593C38.1511 37.8541 38.4521 37.56 38.9626 37.5216C39.5844 37.4832 40.2127 37.4832 40.8345 37.5216ZM46.967 28.5429C47.8702 28.5429 48.4854 29.1696 48.492 30.0457V33.1793C48.492 34.0618 47.8833 34.6758 46.967 34.6758C44.6305 34.6886 42.3005 34.6885 39.964 34.6885H33.1573C32.0774 34.6885 31.5015 34.1194 31.5015 33.0578V30.0457C31.5015 29.1632 32.1167 28.5429 33.0265 28.5429C37.6733 28.5365 42.3202 28.5365 46.967 28.5429Z" fill="url(#paint0_linear_642_6891)"/>
<path fill-rule="evenodd" clip-rule="evenodd" d="M48.2629 25.032C49.8402 25.0703 51.0837 25.7227 51.6858 27.2319C51.8495 27.6412 51.9018 28.0888 52 28.5237V52.9849C51.9804 53.1 51.9477 53.2087 51.9346 53.3238C51.7251 54.929 50.6779 56.0865 49.1006 56.3807C48.6098 56.4638 48.1124 56.4958 47.6215 56.4894C44.6828 56.5022 41.7442 56.5022 38.8056 56.4958C36.4494 56.4958 34.0933 56.5022 31.7371 56.4766C30.0616 56.4574 28.8377 55.6389 28.2945 54.2128C28.144 53.8482 28.0916 53.4453 28 53.0552V28.5301C28.0196 28.4278 28.0458 28.3254 28.0589 28.2231C28.2487 26.6883 29.1781 25.582 30.6572 25.2046C31.1481 25.0831 31.652 25.0256 32.1625 25.0256C35.5397 25.0064 38.9234 25.0064 42.3005 25.0064C44.2902 25.0064 46.2732 24.9808 48.2629 25.032ZM47.8506 26.618H32.1298C30.4216 26.618 29.682 27.3214 29.6689 28.9777C29.6493 31.3247 29.6624 33.6653 29.6624 36.0123V46.4619C29.6624 48.5915 29.6559 50.7274 29.682 52.857C29.7017 54.0529 30.33 54.7052 31.5408 54.8651C31.7371 54.8842 31.9269 54.897 32.1233 54.8906H47.8178C48.0142 54.8906 48.2105 54.8906 48.4003 54.8714C49.6111 54.7627 50.2787 54.0785 50.3311 52.8954C50.3442 52.6587 50.3442 52.4285 50.3442 52.1983C50.3376 48.3932 50.3376 44.5818 50.3376 40.7703V29.0481C50.3376 27.3278 49.6046 26.618 47.8506 26.618ZM40.7297 48.7002C41.2991 48.7258 41.6526 49.0327 41.6918 49.5827C41.7246 50.203 41.718 50.8234 41.6722 51.4437C41.646 51.8913 41.3973 52.128 40.9326 52.1919C40.5923 52.2431 40.2454 52.2303 39.9051 52.2495V52.2303C39.6433 52.2303 39.3881 52.2367 39.1263 52.2303C38.5111 52.2047 38.1445 51.8977 38.1053 51.3094C38.066 50.7402 38.066 50.1711 38.1053 49.6083C38.1445 49.0583 38.5176 48.7258 39.0804 48.7002C39.6433 48.6746 40.18 48.681 40.7297 48.7002ZM34.2045 48.681C34.8459 48.7066 35.1732 49.0583 35.2059 49.6914C35.219 49.9536 35.2059 50.2158 35.2059 50.478L35.1993 50.4972C35.1993 50.7594 35.2124 51.0216 35.1993 51.2838C35.1666 51.8786 34.8852 52.1791 34.2765 52.2111C33.694 52.2431 33.1115 52.2431 32.529 52.2111C31.9793 52.1855 31.6324 51.8466 31.5931 51.2966C31.5604 50.7402 31.5604 50.1838 31.5931 49.6211C31.6258 49.0711 32.0185 48.713 32.5879 48.681C33.1246 48.6554 33.6679 48.6554 34.2045 48.681ZM47.2288 43.0342C47.8178 43.0597 48.1582 43.3667 48.1974 43.9422C48.2367 44.5306 48.2302 50.785 48.1778 51.3669C48.1255 51.9425 47.8375 52.1727 47.2419 52.2111C46.967 52.2431 46.6856 52.2239 46.4107 52.2239C46.1423 52.2239 45.8675 52.2367 45.5991 52.2239C45.0036 52.1855 44.6305 51.8402 44.6043 51.2582C44.5781 50.721 44.5781 44.5242 44.6043 43.987C44.5978 43.4626 45.0297 43.0405 45.5664 43.0342H45.5795C46.1293 43.0086 46.679 43.0086 47.2288 43.0342ZM34.2176 43.0981C34.8459 43.1365 35.1535 43.4498 35.1928 44.0701C35.219 44.6457 35.219 45.2277 35.1862 45.8032C35.1601 46.2828 34.8852 46.5451 34.3943 46.6154C34.2242 46.6346 34.054 46.6474 33.8773 46.6474H33.3995L33.3864 46.6602C33.0657 46.6602 32.7385 46.641 32.4178 46.609C31.9007 46.5322 31.5997 46.2189 31.58 45.7137C31.5539 45.1573 31.5539 44.6009 31.5866 44.0446C31.6193 43.4882 31.9662 43.1429 32.5356 43.1045C33.0919 43.0661 33.6548 43.0661 34.2176 43.0981ZM40.8148 43.1301C41.3581 43.1684 41.646 43.4626 41.6788 43.987C41.718 44.5945 41.718 45.2085 41.6853 45.816C41.6657 46.2892 41.3123 46.5962 40.8148 46.6346C40.5269 46.6538 40.2323 46.6346 39.9444 46.6346L39.9575 46.6282C39.6433 46.6282 39.3292 46.6538 39.0216 46.6282C38.4718 46.577 38.1511 46.302 38.1053 45.7712C38.0595 45.1637 38.0595 44.5498 38.1053 43.9422C38.138 43.4754 38.4587 43.1621 38.943 43.1301C39.5648 43.0853 40.1931 43.0853 40.8148 43.1301ZM47.2942 37.5152C47.8571 37.5536 48.1712 37.8669 48.204 38.4105C48.2367 38.9988 48.2367 39.5936 48.1974 40.1819C48.1582 40.7447 47.8767 40.9877 47.3008 41.0325C46.9997 41.0581 46.6987 41.0325 46.391 41.0325C46.1227 41.0325 45.8478 41.0453 45.5795 41.0325C44.997 40.9941 44.6436 40.6871 44.6108 40.1244C44.5781 39.5552 44.5781 38.9861 44.6108 38.4169C44.6436 37.8669 44.9512 37.5536 45.514 37.5152C46.1031 37.4768 46.6987 37.4768 47.2942 37.5152ZM34.2634 37.5216C34.8459 37.56 35.147 37.8733 35.1797 38.4361C35.2124 39.0244 35.2059 39.6128 35.1797 40.2011C35.1535 40.6808 34.8197 40.9877 34.3223 41.0261C34.0147 41.0517 33.694 41.0261 33.3864 41.0261V41.0389C33.1181 41.0389 32.8432 41.0517 32.5749 41.0389C31.9727 41.0133 31.6193 40.6999 31.5866 40.118C31.5539 39.5488 31.5539 38.9797 31.5866 38.4169C31.6193 37.8669 31.9269 37.56 32.4898 37.5216C33.0788 37.4832 33.6744 37.4832 34.2634 37.5216ZM40.8345 37.5216C41.3581 37.5536 41.6722 37.8733 41.6984 38.3849C41.7311 38.9925 41.7246 39.6064 41.6853 40.2139C41.6526 40.7127 41.345 40.9813 40.8148 41.0261C40.5203 41.0517 40.2193 41.0261 39.9117 41.0325C39.6302 41.0325 39.3488 41.0453 39.0739 41.0325C38.4914 40.9941 38.1445 40.6935 38.1053 40.1244C38.066 39.536 38.0725 38.9477 38.1118 38.3593C38.1511 37.8541 38.4521 37.56 38.9626 37.5216C39.5844 37.4832 40.2127 37.4832 40.8345 37.5216ZM46.967 28.5429C47.8702 28.5429 48.4854 29.1696 48.492 30.0457V33.1793C48.492 34.0618 47.8833 34.6758 46.967 34.6758C44.6305 34.6886 42.3005 34.6885 39.964 34.6885H33.1573C32.0774 34.6885 31.5015 34.1194 31.5015 33.0578V30.0457C31.5015 29.1632 32.1167 28.5429 33.0265 28.5429C37.6733 28.5365 42.3202 28.5365 46.967 28.5429Z" fill="#FF9C00"/>
<defs>
<linearGradient id="paint0_linear_642_6891" x1="33.034" y1="25" x2="53.3361" y2="51.6465" gradientUnits="userSpaceOnUse">
<stop stop-color="#FCCF31"/>
<stop offset="1" stop-color="#F55555"/>
</linearGradient>
</defs>
</svg>
