<svg width="1200" height="745" viewBox="0 0 1200 745"  fill="none" xmlns="http://www.w3.org/2000/svg">
<rect width="1200" height="745" rx="100" fill="rgba(95, 165, 250, 0.09)"/>
<mask id="mask0_9_1897" style="mask-type:alpha" maskUnits="userSpaceOnUse" x="0" y="0" width="1200" height="745">
<rect width="1200" height="745" rx="100" fill="rgba(95, 165, 250, 0.40)"/>
</mask>
<g mask="url(#mask0_9_1897)">
<g opacity="0.2">
<path d="M1386.36 673.574C1285.21 504.602 1108.08 377.559 870.651 326.42C471.943 240.544 14.8199 392.76 -294.019 682.624L-297.161 681.947C-195.802 586.328 -76.6752 504.15 55.5626 439.903C323.568 309.694 613.425 268.637 871.735 324.274C1102.6 373.999 1283.28 495.648 1388.2 669.939L1386.36 673.574Z" fill="#876ED2"/>
<path d="M1363.15 719.541C1268.81 544.735 1093 412.552 853.234 360.91C475.441 279.538 43.1878 420.513 -253.484 691.355L-256.749 690.651C-162.137 603.861 -52.0662 529 69.4913 469.941C327.179 344.745 605.895 305.256 854.287 358.756C1086.97 408.873 1266.72 534.925 1365.05 715.699L1363.12 719.534L1363.15 719.541Z" fill="#876ED2"/>
<path d="M1339.19 766.995C1252.64 585.68 1078.3 447.625 835.819 395.398C479.002 318.544 71.5746 448.301 -212.7 700.138L-215.965 699.435C-128.269 621.404 -27.4239 553.855 83.4079 500.007C330.822 379.802 598.385 341.909 836.858 393.274C1071.73 443.861 1250.38 575.07 1341.08 763.182L1339.16 766.988L1339.19 766.995Z" fill="#876ED2"/>
<path d="M1314.25 816.367C1236.84 627.721 1064.13 482.846 818.388 429.916C482.623 357.565 100.084 476.18 -171.548 709.001L-174.813 708.298C-94.267 638.947 -2.6935 578.666 97.3674 530.052C334.463 414.86 590.931 378.513 819.486 427.741C1048.04 476.968 1221.07 605.791 1306.74 790.535C1310.09 797.763 1313.24 805.043 1316.31 812.367L1314.28 816.374L1314.25 816.367Z" fill="#876ED2"/>
<path d="M1288.05 868.26C1221.57 671.211 1050.7 518.163 800.985 464.378C486.337 396.606 128.719 504.151 -129.996 717.952L-133.292 717.242C-60.141 656.517 22.021 603.444 111.297 560.092C338.119 449.891 583.433 415.139 802.039 462.224C1020.64 509.309 1186.21 632.558 1268.12 809.256C1276.44 827.202 1283.75 845.468 1290.16 864.017L1288.02 868.253L1288.05 868.26Z" fill="#876ED2"/>
<path d="M1260.08 923.643C1206.99 716.785 1038.23 553.749 783.557 498.896C490.115 435.66 157.543 532.224 -87.8872 727.021L-91.2139 726.305C-25.7374 674.081 46.8754 628.219 125.213 590.159C341.718 484.971 575.922 451.794 784.61 496.742C993.297 541.691 1151.33 659.351 1229.55 828.018C1243.21 857.492 1254.14 887.931 1262.34 919.114L1260.05 923.637L1260.08 923.643Z" fill="#876ED2"/>
<path d="M1229.61 983.977C1193.56 765.365 1027.31 589.638 766.139 533.384C494.029 474.775 186.581 560.406 -45.165 736.222L-48.5225 735.499C8.94066 691.705 71.8319 652.92 139.173 620.203C345.404 520.006 568.423 488.418 767.223 531.237C966.023 574.056 1116.5 686.122 1191.02 846.757C1210.62 889.029 1224.21 933.402 1232.1 979.118L1229.65 983.984L1229.61 983.977Z" fill="#876ED2"/>
<path d="M1190.02 1002.26C1158 791.628 999.334 621.85 748.694 567.865C498.084 513.887 215.902 588.712 -1.70103 745.582L-5.12012 744.846C43.9273 709.331 96.8959 677.548 153.104 650.24C349.017 555.056 560.942 525.014 749.792 565.69C938.643 606.366 1081.64 712.822 1152.4 865.475C1172.74 909.271 1186.36 955.397 1193.44 1003L1190.02 1002.26Z" fill="#876ED2"/>
<path d="M1145.66 992.712C1108.22 803.028 960.264 651.678 731.278 602.358C502.322 553.043 245.532 617.216 42.6242 755.132L39.2051 754.396C79.3873 726.968 122.094 702.115 167.019 680.31C352.659 590.117 553.43 561.671 732.362 600.211C911.294 638.751 1046.76 739.618 1113.83 884.24C1130.06 919.25 1141.77 955.791 1149.08 993.449L1145.66 992.712V992.712Z" fill="#876ED2"/>
<path d="M1100.14 982.906C1057.83 814.42 920.947 681.45 713.892 636.853C506.807 592.25 275.66 645.951 88.1814 764.944L84.6699 764.188C115.353 744.615 147.536 726.603 180.949 710.348C356.27 625.168 545.932 598.296 714.946 634.7C883.959 671.103 1011.9 766.383 1075.27 902.973C1087.35 929.027 1096.78 956.002 1103.62 983.656L1100.14 982.906Z" fill="#876ED2"/>
<path d="M1053.07 972.767C1006.67 825.773 881.26 711.141 696.444 671.334C511.629 631.527 306.406 674.945 135.216 775.073L131.674 774.31C152.159 762.283 173.231 750.922 194.908 740.39C359.957 660.202 538.464 634.927 697.528 669.187C856.624 703.454 977.055 793.117 1036.68 921.697C1044.51 938.585 1051.15 955.882 1056.61 973.53L1053.07 972.767V972.767Z" fill="#876ED2"/>
<path d="M1004.03 962.207C954.484 837.067 841.138 740.743 679.024 705.825C516.91 670.908 338.063 704.298 184.25 785.637L180.554 784.841C189.849 779.893 199.271 775.099 208.82 770.46C363.55 695.285 530.932 671.548 680.108 703.679C829.254 735.803 942.19 819.885 998.105 940.462C1001.55 947.901 1004.76 955.415 1007.73 963.003L1004.03 962.207V962.207Z" fill="#876ED2"/>
<path d="M952.158 951.034C900.781 848.254 800.312 770.189 661.608 740.314C522.904 710.439 371.038 734.154 236.121 796.809L232.302 795.986C374.081 729.415 526.514 708.837 662.692 738.168C798.87 767.499 902.684 843.269 956.008 951.863L952.158 951.034Z" fill="#876ED2"/>
<path d="M895.979 938.932C844.643 859.201 758.398 799.433 644.213 774.839C530.027 750.245 406.261 764.779 292.371 808.923L288.09 808.001C407.327 760.978 532.358 748.335 645.311 772.663C758.264 796.992 847.249 855.732 900.26 939.855L895.979 938.932Z" fill="#876ED2"/>
</g>
<rect x="-17.3367" y="158.033" width="109.703" height="4.45946" rx="2.22973" transform="rotate(-20 -17.3367 158.033)" fill="#6548FB"/>
<rect x="12.2502" y="213.243" width="140.473" height="4.45946" rx="2.22973" transform="rotate(-20 12.2502 213.243)" fill="white"/>
<rect x="-56.0154" y="139.122" width="77.5946" height="4.45946" rx="2.22973" transform="rotate(-20 -56.0154 139.122)" fill="#1BD3E8"/>
<rect x="80.0002" y="250.771" width="64.2162" height="4.45946" rx="2.22973" transform="rotate(-20 80.0002 250.771)" fill="#F71249"/>
<rect x="-9.64453" y="368.069" width="64.2162" height="4.45946" rx="2.22973" transform="rotate(-20 -9.64453 368.069)" fill="#1BD3E8"/>
<rect x="6.34302" y="314.362" width="78.9324" height="4.45946" rx="2.22973" transform="rotate(-20 6.34302 314.362)" fill="#F7B70A"/>
<rect x="-32.9998" y="262.635" width="84.2838" height="4.45946" rx="2.22973" transform="rotate(-20 -32.9998 262.635)" fill="#6548FB"/>
<rect width="109.703" height="4.45946" rx="2.22973" transform="matrix(-0.939693 -0.34202 -0.34202 0.939693 1220.31 158.033)" fill="#6548FB"/>
<rect width="140.473" height="4.45946" rx="2.22973" transform="matrix(-0.939693 -0.34202 -0.34202 0.939693 1190.73 213.243)" fill="white"/>
<rect width="77.5946" height="4.45946" rx="2.22973" transform="matrix(-0.939693 -0.34202 -0.34202 0.939693 1258.99 139.122)" fill="#1BD3E8"/>
<rect width="64.2162" height="4.45946" rx="2.22973" transform="matrix(-0.939693 -0.34202 -0.34202 0.939693 1122.98 250.771)" fill="#F71249"/>
<rect width="64.2162" height="4.45946" rx="2.22973" transform="matrix(-0.939693 -0.34202 -0.34202 0.939693 1212.62 368.069)" fill="#1BD3E8"/>
<rect width="78.9324" height="4.45946" rx="2.22973" transform="matrix(-0.939693 -0.34202 -0.34202 0.939693 1196.63 314.362)" fill="#F7B70A"/>
<rect width="84.2838" height="4.45946" rx="2.22973" transform="matrix(-0.939693 -0.34202 -0.34202 0.939693 1235.98 262.635)" fill="#6548FB"/>
</g>
</svg>